# xmcd
# 
# Track frame offsets:
#     150
#     14742
#     29422
#     41414
#     59115
#     74784
#     84332
#     96903
#     112054
#     123959
#     139008
#     148838
#     164986
#     178051
#     194220
#     203886
#     219559
#     232744
#     246094
#     254968
#     269808
#     285856
#     300153
#     317168
#     329414
# 
# Disc length: 4571
# 
# Revision: 1
# Processed by: cddbd v1.5.2PL0 Copyright (c) Steve Scherf et al.
# Submitted via: fre:ac v1.0.17
# 
DISCID=9711d919
DTITLE=Frank Sinatra - The Rat Pack Disc 1
DYEAR=2011
DGENRE=Balladen
TTITLE0=The Lady Is A Tramp
TTITLE1=It Could Happen To You
TTITLE2=Love And Marriage
TTITLE3=Old Devil Moon
TTITLE4=Laura
TTITLE5=Who Wants To Be A Millionaire? (with Celeste Holm)
TTITLE6=Can't We Be Friends
TTITLE7=I Got It Bad (And That Ain't Good)
TTITLE8=A Foggy Day
TTITLE9=Everything Happens To Me
TTITLE10=I've Got The World On A String
TTITLE11=Hello, Young Lovers
TTITLE12=I Get A Kick Out Of You
TTITLE13=This Love Of Mine
TTITLE14=All Of Me
TTITLE15=The Night We Called It A Day
TTITLE16=Swingin' Down The Lane
TTITLE17=Dancing On The Ceiling
TTITLE18=They Can't Take That Away From Me
TTITLE19=Don't Cry Joe (Let Her Go, Let Her Go, Let Her Go)
TTITLE20=It's Easy To Remember
TTITLE21=I Got Plenty O' Nuttin'
TTITLE22=There's No You
TTITLE23=Love Is Here To Stay
TTITLE24=From Here To Eternity
EXTD=
EXTT0=
EXTT1=
EXTT2=
EXTT3=
EXTT4=
EXTT5=
EXTT6=
EXTT7=
EXTT8=
EXTT9=
EXTT10=
EXTT11=
EXTT12=
EXTT13=
EXTT14=
EXTT15=
EXTT16=
EXTT17=
EXTT18=
EXTT19=
EXTT20=
EXTT21=
EXTT22=
EXTT23=
EXTT24=
PLAYORDER=
